<svg width="36" height="36" viewBox="0 0 36 36" fill="none" xmlns="http://www.w3.org/2000/svg">
<path d="M26.7429 19.3685L25.8775 20.2705L26.7429 19.3685ZM9.25675 19.3685L10.1221 20.2705L9.25675 19.3685ZM12.7044 13.8273C12.7044 12.1583 13.1838 10.7571 14.0305 9.79183C14.8565 8.85012 16.1339 8.20459 17.9998 8.20459V5.70459C15.5021 5.70459 13.5068 6.59757 12.151 8.1433C10.8159 9.66543 10.2044 11.7007 10.2044 13.8273H12.7044ZM12.7044 15.9546V13.8273H10.2044V15.9546H12.7044ZM10.3635 22.8864C9.9056 22.8864 9.43164 22.4785 9.43164 21.8455H6.93164C6.93164 23.7429 8.41135 25.3864 10.3635 25.3864V22.8864ZM25.6362 22.8864H10.3635V25.3864H25.6362V22.8864ZM26.568 21.8455C26.568 22.4785 26.094 22.8864 25.6362 22.8864V25.3864C27.5883 25.3864 29.068 23.7429 29.068 21.8455H26.568ZM23.2953 13.8273V15.9546H25.7953V13.8273H23.2953ZM17.9998 8.20459C19.8657 8.20459 21.1432 8.85012 21.9692 9.79183C22.8159 10.7571 23.2953 12.1583 23.2953 13.8273H25.7953C25.7953 11.7007 25.1838 9.66543 23.8486 8.1433C22.4928 6.59757 20.4975 5.70459 17.9998 5.70459V8.20459ZM9.43164 21.8455C9.43164 21.2147 9.70442 20.6712 10.1221 20.2705L8.39138 18.4665C7.54836 19.2752 6.93164 20.4472 6.93164 21.8455H9.43164ZM25.8775 20.2705C26.2952 20.6712 26.568 21.2147 26.568 21.8455H29.068C29.068 20.4472 28.4513 19.2752 27.6083 18.4665L25.8775 20.2705ZM23.2953 15.9546C23.2953 17.0177 23.7737 17.8999 24.279 18.5703C24.7799 19.2348 25.4137 19.8256 25.8775 20.2705L27.6083 18.4665C27.0938 17.9729 26.6289 17.5345 26.2755 17.0656C25.9265 16.6026 25.7953 16.2471 25.7953 15.9546H23.2953ZM10.2044 15.9546C10.2044 16.2471 10.0731 16.6026 9.72416 17.0656C9.37075 17.5345 8.90581 17.9729 8.39138 18.4665L10.1221 20.2705C10.5859 19.8256 11.2198 19.2348 11.7206 18.5703C12.2259 17.8999 12.7044 17.0177 12.7044 15.9546H10.2044Z" fill="#868686"/>
<path d="M21.4922 28.5146C21.8767 27.9412 21.7236 27.1647 21.1502 26.7802C20.5769 26.3957 19.8004 26.5488 19.4158 27.1221L21.4922 28.5146ZM16.5831 27.1221C16.1986 26.5488 15.4221 26.3957 14.8487 26.7802C14.2753 27.1647 14.1222 27.9412 14.5068 28.5146L16.5831 27.1221ZM19.4158 27.1221C19.2962 27.3005 19.1099 27.4695 18.8583 27.5949L19.9732 29.8325C20.5832 29.5286 21.1129 29.0801 21.4922 28.5146L19.4158 27.1221ZM18.8583 27.5949C18.6065 27.7203 18.3097 27.7913 17.9995 27.7913V30.2913C18.6835 30.2913 19.3635 30.1363 19.9732 29.8325L18.8583 27.5949ZM17.9995 27.7913C17.6892 27.7913 17.3924 27.7203 17.1406 27.5949L16.0257 29.8325C16.6355 30.1363 17.3155 30.2913 17.9995 30.2913V27.7913ZM17.1406 27.5949C16.8891 27.4695 16.7027 27.3005 16.5831 27.1221L14.5068 28.5146C14.886 29.0801 15.4157 29.5286 16.0257 29.8325L17.1406 27.5949Z" fill="#868686"/>
</svg>
