<svg width="24" height="24" viewBox="0 0 24 24" fill="none" xmlns="http://www.w3.org/2000/svg">
<path d="M14.9637 9.26324C15.3152 8.91177 15.885 8.91177 16.2365 9.26324C16.588 9.61471 16.588 10.1846 16.2365 10.536L11.6365 15.136C11.285 15.4875 10.7152 15.4875 10.3637 15.136L7.7637 12.536C7.41222 12.1846 7.41222 11.6147 7.7637 11.2632C8.11517 10.9118 8.68502 10.9118 9.03649 11.2632L11.0001 13.2268L14.9637 9.26324Z" fill="#556BF4"/>
<path fill-rule="evenodd" clip-rule="evenodd" d="M12.0001 2.09961C17.4672 2.09961 21.9001 6.53249 21.9001 11.9996C21.9001 17.4667 17.4672 21.8996 12.0001 21.8996C6.53297 21.8996 2.1001 17.4667 2.1001 11.9996C2.1001 6.53249 6.53298 2.09961 12.0001 2.09961ZM12.0001 3.89961C7.52609 3.89961 3.9001 7.5256 3.9001 11.9996C3.9001 16.4736 7.52609 20.0996 12.0001 20.0996C16.4741 20.0996 20.1001 16.4736 20.1001 11.9996C20.1001 7.52561 16.4741 3.89961 12.0001 3.89961Z" fill="#556BF4"/>
</svg>
